<svg xmlns="http://www.w3.org/2000/svg" viewBox="0 0 213.52 97.74"><title>logo</title><g id="Слой_2" data-name="Слой 2"><g id="Слой_1-2" data-name="Слой 1"><path d="M0,40.48c0-3,2.53-7.66,5.1-9.4C8.15,29,9.7,28,12.83,26.14c2.55-1.54,5,.43,5.12,4l1.24,60.75c.07,3.54-2.42,6.88-5.15,6.88H5.65A6.1,6.1,0,0,1,0,91.92Q0,66.2,0,40.48ZM11.48,92.54a1.47,1.47,0,0,0,1.21-1.44l-.91-57.91a.76.76,0,0,0-1.17-.73c-1.41.82-2.12,1.24-3.52,2.09a2.66,2.66,0,0,0-1.13,2l.51,54.89a1.25,1.25,0,0,0,1.24,1.26Z" style="fill:#941e14"/><path d="M28,17.94Q36,14.06,44.42,11l.19,7.64c-4.07,1.36-6.09,2.09-10.09,3.67l.69,27.07c3.32-.84,5-1.23,8.34-2l.19,7.35c-3.35.63-5,1-8.35,1.68l1,41.3H29.91Z" style="fill:#941e14"/><path d="M53.69,7.88Q62.14,5.3,70.82,3.55l.14,8.3c-4.19.77-6.28,1.22-10.43,2.22l.63,30c3.4-.53,5.11-.77,8.53-1.2l.14,8c-3.41.37-5.11.57-8.51,1l1,45.81H55.76Z" style="fill:#941e14"/><path d="M81.17,63.42c2.65-.14,4-.21,6.64-.31l.25,25.43c0,.95.55,1.89,1.17,1.88l4.07,0c.62,0,1-.82,1.05-1.5l-.19-29.12a4.53,4.53,0,0,0-1.1-3.1c-3-2.95-4.53-4.4-7.56-7.23-3.19-2.64-4.61-7.06-4.67-12.16l-.3-23.06c-.18-5.32,1.85-12.35,8-13.34C90.3.7,91.21.62,93,.49,97.84.12,100.74,5.4,100.76,11l.07,23.5c-2.74.06-4.1.11-6.84.24L93.83,9.82c0-1-.66-1.86-1.31-1.82-1.55.11-2.33.18-3.87.32-.74.07-1.28.94-1.37,1.89l.27,27.32a4.19,4.19,0,0,0,1.3,3.17c2.93,2.7,4.39,4.08,7.31,6.87,2.73,2.5,4.73,5.89,4.75,12.86l.08,25c0,6.83-2.87,12.29-7.73,12.29H88.94c-4.68,0-7.39-5.09-7.46-10.46Z" style="fill:#941e14"/><path d="M117.3,8.86c-2.84-.15-4.27-.2-7.12-.25l0-8.61a182.06,182.06,0,0,1,21.21,1.64l-.1,8.47c-2.87-.36-4.3-.51-7.18-.77q-.39,44.2-.78,88.39h-6.53Q117.06,53.3,117.3,8.86Z" style="fill:#941e14"/><path d="M143.44,3.7c3.58.74,5.37,1.15,8.92,2.07q2.56,46,5.05,92h-6.09q-.39-8.75-.78-17.51c-3.3-.16-4.95-.24-8.25-.37q-.74,8.94-1.46,17.88h-6Q139,50.71,143.44,3.7Zm6.72,68.77Q149,46.13,147.71,19.8l-.36-.07Q145.11,45.86,143,72C145.84,72.18,147.28,72.27,150.16,72.47Z" style="fill:#941e14"/><path d="M168.54,19.49c.11-4.5,3.23-7.54,6.29-6.3s4.46,1.84,7.39,3.18,5.48,6.41,5.39,10.48l-.54,22.46c-2.56-.77-3.84-1.15-6.42-1.86l.6-24a2.52,2.52,0,0,0-1.17-2.1c-1.49-.61-2.24-.91-3.74-1.49-.7-.27-1.25.36-1.27,1.18l-1.72,67.38c0,.94.48,1.79,1.28,1.82l4,.15c.7,0,1.34-.75,1.36-1.66l.64-25.44-3-.55.19-7.3c3.75.82,5.61,1.26,9.32,2.19l-1,40.12h-3.62c-.48-2.11-.72-3.17-1.19-5.32-.78,2.92-3,5.32-5.16,5.32h-3.62c-3.09,0-5.89-4.25-5.79-8.38Z" style="fill:#941e14"/><path d="M198.22,24.67a182.44,182.44,0,0,1,15.31,10c0,2.22,0,3.34,0,5.56-3.67-2.41-5.53-3.55-9.3-5.73l-.3,22.7c3.2,1.15,4.79,1.75,7.95,3l0,5.48c-3.18-1.07-4.79-1.58-8-2.57l-.38,28.52c4,.21,6,.32,10.07.55,0,2.22,0,3.34,0,5.56H196.85Q197.53,61.2,198.22,24.67Z" style="fill:#941e14"/></g></g></svg>